<?xml version="1.0" encoding="iso-8859-1"?>
<!-- Generator: Adobe Illustrator 16.0.0, SVG Export Plug-In . SVG Version: 6.00 Build 0)  -->
<!DOCTYPE svg PUBLIC "-//W3C//DTD SVG 1.1//EN" "http://www.w3.org/Graphics/SVG/1.1/DTD/svg11.dtd">
<svg version="1.1" id="Capa_1" xmlns="http://www.w3.org/2000/svg" xmlns:xlink="http://www.w3.org/1999/xlink" x="0px" y="0px"
	 width="512px" height="512px" viewBox="0 0 512 512" style="enable-background:new 0 0 512 512;" xml:space="preserve">
<circle cx="256" cy="256" r="233" fill="pink" stroke="black" stroke-width="45" />
<g>
		<path d="M415.968,369.254c-3.612-24.826-14.428-47.701-31.28-66.155l-1.194-1.351c-0.246-0.278-0.507-0.544-0.782-0.794
			c-58.318-53.03-82.023-109.204-90.963-137.969c-4.27-13.739-5.496-22.202-5.516-22.341c-7.419-50.999-47.856-86.269-95.944-85.231
			L178.368,7.726c-0.926-3.706-3.846-6.585-7.566-7.457c-3.724-0.872-7.616,0.408-10.093,3.316l-8.952,10.508
			c-11.546,13.555-15.862,31.959-11.542,49.235l1.6,6.405C108.168,90.68,89.507,131.197,95.977,171.11
			c3.528,21.767,6.411,39.13,9.074,54.64c15.528,90.43,29.46,152.058,54.715,199.467c12.324,23.134,33.972,46.392,57.906,62.216
			c24.528,16.217,50.515,24.566,76.049,24.566c5.58,0,11.139-0.399,16.654-1.201c33.007-4.802,62.167-22.169,82.112-48.904
			C412.431,435.161,420.77,402.261,415.968,369.254z M116.111,167.846c-5.511-34.008,11.804-68.538,42.11-83.97
			c4.234-2.156,6.418-6.952,5.266-11.562l-3.483-13.932c-2.195-8.782-0.854-18.028,3.562-25.761l9.001,36.004
			c1.24,4.962,5.971,8.24,11.046,7.661c40.743-4.628,76.181,24.302,82.425,67.219c0.032,0.225,0.474,3.367,1.711,8.827
			c-5.114-1.654-9.44-3.667-12.923-6.031c-6.035-4.097-11.587-8.364-16.486-12.13c-13.618-10.469-22.616-17.383-32.222-13.071
			c-5.609,2.516-8.765,8.112-9.379,16.633c-0.733,10.15,0.164,22.099,1.298,31.799c-3.055-2.847-6.194-6.973-8.833-12.954
			c-4.263-9.661-9.222-18.403-14.743-25.986c-4.088-5.614-11.083-8.179-17.823-6.539c-6.715,1.636-11.728,7.112-12.773,13.948
			c-3.085,20.202-6.901,37.457-10.74,48.586c-1.832,5.309-5.612,11.101-11.116,17.134
			C120.223,193.049,118.29,181.293,116.111,167.846z M376.137,449.698c-16.685,22.367-41.083,36.898-68.697,40.914
			c-57.445,8.354-110.404-38.819-129.67-74.986c-23.439-43.999-36.842-102.322-51.617-187.552
			c13.499-11.729,22.323-23.43,26.256-34.833c4.46-12.927,7.885-29.661,10.247-43.611c2.843,4.655,5.482,9.734,7.885,15.182
			c13.706,31.066,39.144,31.437,40.266,31.437c0.001,0,0.002,0,0.003,0c3.038-0.002,5.917-1.357,7.852-3.698
			c1.936-2.341,2.729-5.423,2.161-8.407c-0.047-0.245-4.298-22.834-3.936-40.56c2.808,1.984,6.103,4.518,9.022,6.76
			c5.122,3.938,10.927,8.4,17.461,12.835c7.896,5.36,18.248,9.326,30.834,11.822c7.448,22.042,21.959,55.393,49.125,91.233
			c-2.518-0.638-5.064-1.226-7.66-1.718c-5.535-1.049-10.871,2.588-11.921,8.122c-1.048,5.534,2.588,10.871,8.122,11.921
			c17.75,3.365,34.506,11.465,48.299,23.186c2.516,2.439,5.086,4.874,7.736,7.303c0.554,0.577,1.116,1.147,1.655,1.738
			c0.005,0.005,0.01,0.011,0.015,0.016c14.119,15.44,23.181,34.593,26.206,55.389C399.8,399.805,392.824,427.331,376.137,449.698z"
			/>
	</g>
	</svg>