<?xml version="1.0" encoding="iso-8859-1"?>
<svg version="1.1" id="Capa_1" xmlns="http://www.w3.org/2000/svg" xmlns:xlink="http://www.w3.org/1999/xlink" x="0px" y="0px"
	 width="512px" height="512px" viewBox="0 0 512 512" style="enable-background:new 0 0 512 512;" xml:space="preserve">
<circle cx="256" cy="256" r="233" fill="none" stroke="black" stroke-width="19.5" />
<path stroke="null" id="svg_3" d="m406.12415,340.661487c-3.186516,-18.667982 -12.728422,-35.868904 -27.595303,-49.745442l-1.05335,-1.015888c-0.217022,-0.209043 -0.447277,-0.409062 -0.689883,-0.597051c-51.448301,-39.876061 -72.360918,-82.116261 -80.247811,-103.746186c-3.767006,-10.33108 -4.848586,-16.694858 -4.866231,-16.799379c-6.545062,-38.348844 -42.218696,-64.870222 -84.642063,-64.089695l-10.516739,-35.858377c-0.81692,-2.786737 -3.392952,-4.95161 -6.674746,-5.607313c-3.285323,-0.655703 -6.718856,0.306797 -8.904073,2.493476l-7.897479,7.901521c-10.185913,10.192721 -13.9935,24.031662 -10.182384,37.0224l1.411524,4.816258c-29.683477,15.751157 -46.146263,46.218031 -40.438411,76.230726c3.112411,16.367758 5.655802,29.423916 8.005108,41.086705c13.698845,67.999098 25.989694,114.34045 48.269725,149.989783c10.872267,17.395678 29.970193,34.884598 51.084834,46.7835c21.63867,12.19442 44.564473,18.472474 67.090639,18.472474c4.922691,0 9.826857,-0.300029 14.692205,-0.903095c29.118867,-3.610878 54.8439,-16.670043 72.439434,-36.773503c17.594652,-20.101956 24.951341,-44.841206 20.715003,-69.660914zm-264.534677,-151.449324c-4.861819,-25.572413 10.413522,-51.537346 37.149559,-63.141483c3.735247,-1.62121 5.661977,-5.227576 4.64568,-8.694079l-3.072712,-10.476207c-1.936435,-6.60365 -0.753401,-13.556206 3.142406,-19.371058l7.940707,27.073311c1.093931,3.73119 5.267633,6.196092 9.744812,5.760711c35.943588,-3.480038 67.20709,18.273959 72.715564,50.54552c0.02823,0.169189 0.418164,2.531825 1.509449,6.637488c-4.511585,-1.24373 -8.327994,-2.757411 -11.400706,-4.535028c-5.324094,-3.080751 -10.222084,-6.289334 -14.543995,-9.121188c-12.013837,-7.872195 -19.951898,-13.071197 -28.426338,-9.828776c-4.948275,1.891913 -7.732507,6.099842 -8.27418,12.507232c-0.646655,7.632322 0.144681,16.617406 1.145099,23.911349c-2.695129,-2.14081 -5.464364,-5.243367 -7.792497,-9.740797c-3.76083,-7.264617 -8.135674,-13.838189 -13.006315,-19.540247c-3.606445,-4.221463 -9.777453,-6.150223 -15.7235,-4.91702c-5.923992,1.230195 -10.346474,5.347889 -11.268376,10.488239c-2.721596,15.190952 -6.088081,28.165899 -9.474858,36.534382c-1.616195,3.992118 -4.950922,8.347429 -9.806566,12.88396c-1.575614,-8.024841 -3.280912,-16.864799 -5.203232,-26.976309zm229.395658,211.93942c-14.719553,16.81893 -36.243537,27.745557 -60.604684,30.7654c-50.678138,6.281814 -97.398715,-29.190058 -114.395234,-56.385938c-20.677951,-33.085174 -32.502115,-76.941322 -45.536661,-141.030265c11.908855,-8.819655 19.693413,-17.618256 23.163116,-26.192774c3.934624,-9.720495 6.956169,-22.303674 9.039932,-32.793417c2.508102,3.500341 4.836236,7.319509 6.956169,11.416148c12.091471,23.360168 34.532945,23.639142 35.522777,23.639142c0.000882,0 0.001764,0 0.002647,0c2.680132,-0.001504 5.219994,-1.0204 6.927056,-2.780722c1.707945,-1.760322 2.407531,-4.07784 1.90644,-6.321668c-0.041464,-0.184228 -3.791708,-17.170092 -3.47235,-30.499208c2.477225,1.491874 5.384084,3.397323 7.959233,5.083201c4.518643,2.96119 9.63983,6.316404 15.404143,9.651315c6.965873,4.030467 16.098436,7.012712 27.20184,8.889587c6.570646,16.574545 19.372291,41.652925 43.338211,68.602916c-2.221387,-0.479746 -4.467475,-0.921894 -6.757673,-1.291855c-4.882992,-0.788799 -9.590426,1.946054 -10.516739,6.107361c-0.924549,4.161307 2.283141,8.17448 7.165251,8.96403c15.659099,2.530321 30.441289,8.62114 42.609512,17.434779c2.219622,1.834013 4.486883,3.665018 6.824721,5.491512c0.48874,0.433877 0.984538,0.86249 1.460046,1.306894c0.004411,0.00376 0.008822,0.008271 0.013233,0.012031c12.455821,11.610152 20.450342,26.012306 23.119006,41.649918c3.545573,20.764427 -2.608674,41.462681 -17.329991,58.281611z"/>
</svg>